<?xml version="1.0" encoding="UTF-8"?>
<svg width="27px" height="32px" viewBox="0 0 27 32" version="1.1" xmlns="http://www.w3.org/2000/svg" xmlns:xlink="http://www.w3.org/1999/xlink">
    <!-- Generator: Sketch 42 (36781) - http://www.bohemiancoding.com/sketch -->
    <title>Group 2</title>
    <desc>Created with Sketch.</desc>
    <defs></defs>
    <g id="Page-1" stroke="none" stroke-width="1" fill="none" fill-rule="evenodd">
        <g id="Group-2">
            <path d="M22.7414035,2.38613277 C21.3298193,0.75049672 18.7792287,0.0498117292 15.5163136,0.0498117292 L6.04468477,0.0498117292 C5.37749301,0.0498117292 4.80977131,0.543400682 4.70584736,1.21299108 L0.761784999,26.641426 C0.683990499,27.143166 1.06553986,27.5969055 1.56496867,27.5969055 L7.41232395,27.5969055 L8.88121475,18.1269411 L8.83548821,18.4236982 C8.93970909,17.7541078 9.50267997,17.2608208 10.1695748,17.2608208 L12.9485012,17.2608208 C18.406884,17.2608208 22.6805338,15.0063117 23.9294027,8.48610732 C23.9662215,8.29289819 23.9979925,8.10572684 24.0262004,7.92217817 C23.868533,7.83704539 23.868533,7.83704539 24.0262004,7.92187628 C24.3979513,5.51159236 24.0235281,3.87172986 22.7414035,2.38613277" id="Fill-13" fill="#003087"></path>
            <path d="M10.4591366,7.9539973 C10.521491,7.55127701 10.7759562,7.22131204 11.1183114,7.05436728 C11.2739004,6.97859307 11.4478988,6.93632858 11.6302111,6.93632858 L19.054835,6.93632858 C19.9343285,6.93632858 20.754437,6.99489509 21.504174,7.11776403 C21.7185543,7.15278318 21.926996,7.19323634 22.1294993,7.23882162 C22.3320025,7.28470879 22.5285672,7.33572808 22.7188965,7.39218137 C22.8142096,7.42055896 22.9077412,7.45014411 22.9997881,7.4812387 C23.3679758,7.60561708 23.7109249,7.75203338 24.0262598,7.92199703 C24.3980106,5.51171312 24.0235875,3.87154873 22.7414629,2.38625353 C21.3295818,0.750617476 18.7792881,0.0499324849 15.516373,0.0499324849 L6.04444722,0.0499324849 C5.37755239,0.0499324849 4.8098307,0.543219549 4.70590675,1.21311183 L0.761844384,26.6412449 C0.684049884,27.1429848 1.06530232,27.5967244 1.56502805,27.5967244 L7.41238333,27.5967244 L8.88127413,18.12676 L10.4591366,7.9539973 Z" id="Fill-15" fill="#003087"></path>
            <path d="M24.0262301,7.92199703 L24.0262301,7.92199703 C23.9977253,8.1058476 23.9662512,8.29301895 23.9294324,8.48592619 C22.6805634,15.0061306 18.4066168,17.2609415 12.9485309,17.2609415 L10.1693076,17.2609415 C9.50241274,17.2609415 8.93944185,17.7542286 8.8355179,18.423819 L8.8355179,18.423819 L7.41235364,27.5967244 L7.00883179,30.198708 C6.94053891,30.637655 7.27428325,31.0346394 7.71135769,31.0346394 L12.6400252,31.0346394 C13.223484,31.0346394 13.7199436,30.6032396 13.8110997,30.0172726 L13.8592016,29.762478 L14.7876879,23.7763157 L14.8476669,23.445747 C14.9385261,22.8597799 15.4352826,22.4280782 16.0187413,22.4280782 L16.7560075,22.4280782 C21.5308676,22.4280782 25.2694575,20.4558357 26.3621436,14.7519398 C26.8185182,12.3682222 26.5824624,10.3787719 25.3754599,8.98011892 C25.0102415,8.55717205 24.5559454,8.20728239 24.0262301,7.92199703" id="Fill-17" fill="#009CDE"></path>
            <path d="M22.7189856,7.39224175 C22.5286563,7.33578845 22.3320916,7.28446728 22.1295884,7.238882 C21.9270851,7.19299483 21.7183464,7.15284356 21.5042631,7.1178244 C20.7542291,6.99495547 19.9344176,6.93638895 19.0546271,6.93638895 L11.6300032,6.93638895 C11.4476909,6.93638895 11.2739895,6.97865345 11.1184005,7.05442766 C10.7757484,7.22137242 10.5215801,7.5510355 10.4592257,7.95405768 L8.88136321,18.1268203 L8.83563667,18.4238794 C8.93956062,17.7539871 9.50253151,17.2607 10.1694263,17.2607 L12.9486497,17.2607 C18.4067355,17.2607 22.6806822,15.006191 23.9292542,8.48598657 C23.9663699,8.29307932 23.9978441,8.10590798 24.0263489,7.92205741 C23.710717,7.75209375 23.3680649,7.60567746 22.9998772,7.48129908 C22.9078303,7.45020449 22.8140018,7.42061934 22.7189856,7.39224175" id="Fill-19" fill="#012169"></path>
        </g>
    </g>
</svg>