<?xml version="1.0" standalone="no"?>
<!-- Generator: Adobe Fireworks 10, Export SVG Extension by Aaron Beall (http://fireworks.abeall.com) . Version: 0.6.1  -->
<!DOCTYPE svg PUBLIC "-//W3C//DTD SVG 1.1//EN" "http://www.w3.org/Graphics/SVG/1.1/DTD/svg11.dtd">
<svg id="logo"
	 viewBox="0 0 512 512" version="1.1"
	 xmlns="http://www.w3.org/2000/svg"
	 xmlns:xlink="http://www.w3.org/1999/xlink"
	 xml:space="preserve"
	 x="0px" y="0px" width="100px" height="100px"
>
    <style>
        .path {
            stroke-dasharray: 100;
            animation: dash 5s linear;
        }

        @keyframes dash {
            to {
                stroke-dashoffset: 1000;
            }
        }
        .blinking {
            stroke-dasharray: 100;
            animation: dash 5s linear;
        }
        @keyframes blink {
        visibility: none;
        }
    </style>
	<path id="Ellipse"
		  d="M 2 256.5 C 2 115.9417 115.7179 2 256 2 C 396.2821 2 510 115.9417 510 256.5 C 510 397.0583 396.2821 511 256 511 C 115.7179 511 2 397.0583 2 256.5 Z"
		  stroke="#ffffff00" stroke-width="1" fill="#ffffc1"/>
	<g id="logo-cake">
			<path id="logo-cake-arm-l"
				  class="path"
				  d="M 284.1564 373.7274 C 284.1564 373.7274 280.4426 375.8616 270.5968 369.1244 C 261.483 362.8882 260.9644 355.3155 260.9644 355.3155 C 260.9644 355.3155 270.2264 352.0488 268.1517 344.9217 C 266.8634 340.4958 259.853 345.8126 259.853 345.8126 C 259.853 345.8126 256.8151 334.2309 251.2579 335.2703 C 247.0864 336.0505 250.6651 343.8823 250.6651 343.8823 C 250.6651 343.8823 244.5892 338.2399 241.6254 340.3187 C 238.6616 342.3975 244.0706 350.1185 244.0706 350.1185 C 244.0706 350.1185 233.6972 349.5247 234.29 355.464 C 234.8827 361.4033 248.8868 360.7351 248.8868 360.7351 C 248.8868 360.7351 255.7911 371.0389 263.4095 378.5531 C 272.8938 387.9075 285.5642 386.8682 285.5642 386.8682 "
				  stroke="#000000" stroke-width="5" fill="#b9467c"/>
		<path id="logo-cake-arm-r"
			  d="M 431.7549 376.7713 C 431.7549 376.7713 440.3501 383.6015 449.5379 376.4744 C 455.0002 372.2372 456.0583 366.9714 456.0583 366.9714 C 456.0583 366.9714 446.5741 359.3988 447.1669 354.7958 C 447.6034 351.4056 456.6511 355.9836 456.6511 355.9836 C 456.6511 355.9836 457.8366 346.3323 461.0969 346.1838 C 464.3571 346.0353 464.9498 354.2019 464.9498 354.2019 C 464.9498 354.2019 469.2474 347.0747 472.6558 348.8564 C 476.0642 350.6383 473.2485 356.8746 473.2485 356.8746 C 473.2485 356.8746 478.8798 353.6079 481.399 358.5079 C 483.8889 363.3506 472.063 366.9714 472.063 366.9714 C 472.063 366.9714 469.8286 370.6849 466.2836 375.2864 C 463.2194 379.2638 459.2821 383.9262 453.6873 387.1652 C 440.3501 394.8862 429.2357 389.3923 429.2357 389.3923 "
			  stroke="#000000" stroke-width="5" fill="#b9467c"/>
		<g id="logo-cake-side">
				<path id="logo-cake-side-ground"
					  d="M 281.5521 350.6941 C 280.3251 349.2631 284.8983 365.7532 286.9226 385.4823 C 289.0961 406.6659 290.9731 430.5222 290.9731 430.5222 C 290.9731 430.5222 313.3978 457.0864 354.1027 458.9319 C 397.7698 460.9117 418.7141 438.5403 418.7141 438.5403 C 418.7141 438.5403 424.6274 413.3771 428.3959 392.2136 C 431.7421 373.4222 433.0901 358.2842 431.7359 359.1799 C 423.657 364.5237 405.9697 370.238 405.9697 370.238 L 368.9218 375.2864 L 336.0233 373.5046 L 312.0164 368.4562 L 293.6406 359.5472 C 293.6406 359.5472 283.4033 352.8527 281.5521 350.6941 Z"
					  fill="#ffffff"/>
			<g id="logo-cake-side-bars">
					<path d="M 319.4259 371.1289 L 336.9125 374.3956 L 339.8763 456.0613 L 322.6862 451.0128 L 319.4259 371.1289 Z"
						  fill="#ffd2a5"/>
				<path d="M 305.4959 441.8069 L 298.6791 362.8139 L 283.5636 355.0928 L 291.5659 430.5222 L 305.4959 441.8069 Z"
					  fill="#ffd2a5"/>
				<path d="M 356.4738 375.0885 L 374.8495 374.9895 L 376.6278 457.2491 L 360.6231 458.437 L 356.4738 375.0885 Z"
					  fill="#ffd2a5"/>
				<path d="M 413.6756 369.3472 L 408.6371 445.1725 L 395.5963 451.3098 L 395.0035 373.2077 L 413.6756 369.3472 Z"
					  fill="#ffd2a5"/>
				</g>
			<g id="logo-cake-side-lines">
					<path d="M 299.8646 364.0017 L 306.3851 442.1039 " stroke="#000000" stroke-width="5" fill="none"/>
				<path d="M 318.5367 370.535 L 321.5006 450.4189 " stroke="#000000" stroke-width="5" fill="none"/>
				<path d="M 337.8016 374.6925 L 341.3582 456.0613 " stroke="#000000" stroke-width="5" fill="none"/>
				<path d="M 355.5846 376.4744 L 359.4376 458.14 " stroke="#000000" stroke-width="5" fill="none"/>
				<path d="M 376.035 375.2864 L 377.517 456.9521 " stroke="#000000" stroke-width="5" fill="none"/>
				<path d="M 394.4108 451.9037 L 394.1144 373.5046 " stroke="#000000" stroke-width="5" fill="none"/>
				<path d="M 414.8611 368.7532 L 409.8226 443.8856 " stroke="#000000" stroke-width="5" fill="none"/>
				</g>
			<path id="logo-cake-side-border"
				  d="M 281.5521 350.6941 C 280.3251 349.2631 284.8983 365.7532 286.9226 385.4823 C 289.0961 406.6659 290.9731 430.5222 290.9731 430.5222 C 290.9731 430.5222 313.3978 457.0864 354.1027 458.9319 C 397.7698 460.9117 418.7141 438.5403 418.7141 438.5403 C 418.7141 438.5403 424.6274 413.3771 428.3959 392.2136 C 431.7421 373.4222 433.0901 358.2842 431.7359 359.1799 "
				  stroke="#000000" stroke-width="5" fill="none"/>
			</g>
		<path id="logo-cake-head"
			  d="M 276.4504 335.493 C 277.0432 323.3174 290.3804 316.1902 290.3804 316.1902 C 290.3804 316.1902 276.1541 304.0146 283.86 292.1359 C 293.1361 277.8369 309.6453 282.3361 309.6453 282.3361 C 309.6453 282.3361 322.9825 252.0455 373.9603 260.3606 C 398.836 264.4181 412.035 272.1726 418.9117 279.8613 C 430.8867 293.2505 423.8514 307.7761 423.8514 307.7761 C 423.8514 307.7761 431.0366 309.6081 436.6947 316.2892 C 439.957 320.1414 442.9633 325.8567 443.6103 333.1173 C 445.0922 349.7474 435.9043 355.9836 435.9043 355.9836 C 435.9043 355.9836 417.2322 374.6925 363.2905 374.6925 C 309.3489 374.6925 285.0455 353.9049 285.0455 353.9049 C 285.0455 353.9049 275.8412 348.0072 276.4504 335.493 Z"
			  stroke="#000000" stroke-width="5" fill="#d38cad"/>
		<g id="logo-cake-gloss">
				<path d="M 331.9481 272.5362 C 331.9481 272.5362 327.6505 273.9468 325.3536 276.3968 C 323.0566 278.8467 321.4265 283.3012 321.4265 283.3012 "
					  stroke="#b9467c" stroke-width="5" fill="none"/>
			<path d="M 302.2357 291.9132 C 302.2357 291.9132 294.8262 289.4633 290.899 296.2935 C 286.972 303.1237 295.4189 306.613 295.4189 306.613 "
				  stroke="#b9467c" stroke-width="5" fill="none"/>
			<path d="M 297.7159 350.3413 C 297.7159 350.3413 285.0455 345.9611 286.157 335.9385 C 287.2684 325.9158 297.049 322.9462 297.049 322.9462 "
				  stroke="#b9467c" stroke-width="5" fill="none"/>
			<path d="M 432.3477 344.9959 C 432.3477 344.9959 436.5712 338.6854 434.7928 331.2612 C 433.0146 323.837 427.4574 320.9417 427.4574 320.9417 "
				  stroke="#b9467c" stroke-width="5" fill="none"/>
			</g>
		<path id="logo-cake-blink-r" d="M 404 319 L 395 316 L 383 318 " stroke="#000000" stroke-width="5" fill="none"/>
		<path id="logo-cake-blink-l" d="M 337 317 L 326 314 L 314 318 " stroke="#000000" stroke-width="5" fill="none"/>
		<g id="logo-cake-eye-l">
				<g id="logo-cake-lashes-l">
					<path d="M 330.0957 295.9965 L 330.0957 304.0146 " stroke="#000000" stroke-width="5" fill="none"/>
					<path d="M 340.7655 301.0449 L 336.3197 308.1721 " stroke="#000000" stroke-width="5" fill="none"/>
					<path d="M 318.8331 297.4813 L 321.2042 304.3115 " stroke="#000000" stroke-width="5" fill="none"/>
					<path d="M 309.6453 304.9055 L 314.6838 309.9539 " stroke="#000000" stroke-width="5" fill="none"/>
				</g>
			<path id="logo-cake-sclera-l"
				  d="M 325.0571 305.2025 C 334.2451 304.3115 338.098 311.4387 338.098 315.8932 C 338.098 320.3478 335.7269 327.178 325.6499 327.178 C 315.5729 327.178 313.4982 319.4568 313.7947 315.2993 C 314.0911 311.1418 315.8693 306.0934 325.0571 305.2025 Z"
				  stroke="#000000" stroke-width="5" fill="#ffffff"/>
			<path id="logo-cake-pupil-l" d="M 322.6862 313.5175 L 322.0934 315.8932 " stroke="#000000" stroke-width="6"
				  fill="none"/>
			</g>
		<g id="logo-cake-eye-r">
				<g id="logo-lashes-r">
					<path d="M 380.4807 302.8267 L 384.3337 309.36 " stroke="#000000" stroke-width="5" fill="none"/>
					<path d="M 393.818 298.6692 L 393.818 305.2025 " stroke="#000000" stroke-width="5" fill="none"/>
					<path d="M 403.5986 300.1541 C 403.5986 300.1541 403.3398 301.8668 402.8765 303.3615 C 402.4131 304.856 401.5239 306.6873 401.5239 306.6873 "
						  stroke="#000000" stroke-width="5" fill="none"/>
					<path d="M 411.0082 308.4691 C 411.0082 308.4691 409.8226 309.8549 408.4889 310.8943 C 407.1552 311.9337 405.6239 312.6266 405.6239 312.6266 "
						  stroke="#000000" stroke-width="5" fill="none"/>
				</g>
			<path id="logo-cake-sclera-r"
				  d="M 392.0397 306.9843 C 401.9191 305.4994 405.0805 311.6367 405.0805 318.2689 C 405.0805 323.1194 400.7336 328.6628 394.7072 328.6628 C 391.8046 328.6628 388.5957 327.2479 386.5566 325.3219 C 384.3619 323.249 383.4446 320.578 383.4446 318.2689 C 383.4446 315.446 383.9579 312.3711 386.1862 310.0281 C 387.474 308.6739 389.2674 307.4009 392.0397 306.9843 Z"
				  stroke="#000000" stroke-width="5" fill="#ffffff"/>
			<path id="logo-cake-pupil-r" d="M 391.3481 314.5569 L 390.3602 317.0316 " stroke="#000000" stroke-width="6"
				  fill="none"/>
			</g>
		<path id="logo-cake-mouth"
			  d="M 346.2485 330.8158 C 346.2485 330.8158 345.0287 338.1931 348.0269 344.8474 C 350.2037 349.6788 354.9574 354.27 362.3026 354.6968 C 369.3713 355.1075 372.7498 350.2205 374.1085 344.5505 C 375.6534 338.1035 374.6519 330.7416 374.6519 330.7416 "
			  stroke="#000000" stroke-width="5" fill="none"/>
		<path id="logo-cake-flower"
			  d="M 391.4469 227.6943 C 381.6663 223.5367 373.9603 243.4335 373.9603 243.4335 C 373.9603 243.4335 370.4101 233.1844 364.3279 231.2579 C 362.5948 230.7089 360.2896 230.1719 358.2521 231.5548 C 350.396 236.8871 361.5122 250.2637 361.5122 250.2637 C 361.5122 250.2637 355.3362 249.5366 349.3685 250.8921 C 346.1469 251.6239 342.9858 253.173 340.8901 255.2943 C 339.3574 256.8457 338.3944 258.5847 338.3944 261.2515 C 338.3944 270.6282 359.4376 263.3302 359.4376 263.3302 C 359.4376 263.3302 351.2395 271.3965 350.9105 278.3434 C 350.8144 280.3709 350.8463 282.5748 352.6207 284.1179 C 362.3935 292.6165 369.5146 267.4878 369.5146 267.4878 C 369.5146 267.4878 378.7025 288.5724 387.5939 282.93 C 396.4854 277.2876 383.741 262.7363 383.741 262.7363 C 383.741 262.7363 404.7841 268.0817 405.3769 258.2818 C 406.1129 246.114 388.483 249.6698 388.483 249.6698 C 388.483 249.6698 402.6966 232.4763 391.4469 227.6943 Z"
			  stroke="#000000" stroke-width="5" fill="#b9467c"/>
		</g>
	<g id="logo-heart">
        <path id="logo-heart-drop-5"
			  d="M 225.7689 53.0782 C 225.7689 53.0782 224.7316 53.9691 224.287 56.0479 C 223.8425 58.1266 224.287 59.3145 224.287 59.3145 C 224.287 59.3145 229.3256 59.7599 235.2532 64.3629 C 241.1808 68.9659 246.5157 65.5508 246.5157 65.5508 C 246.5157 65.5508 246.8121 61.5417 241.1808 58.4236 C 235.5496 55.3054 225.7689 53.0782 225.7689 53.0782 Z"
			  fill="#000000"/>
		<path id="logo-heart-drop-4"
			  d="M 310.238 2 L 306.0887 2 C 306.0887 2 304.7549 10.1666 306.6815 17.1453 C 308.6079 24.124 312.3127 25.4603 312.3127 25.4603 C 312.3127 25.4603 313.3501 20.4119 312.9055 15.0665 C 312.4609 9.7211 310.238 2 310.238 2 Z"
			  fill="#000000"/>
		<path id="logo-heart-drop-3"
			  d="M 395.5963 19.818 C 395.5963 19.818 394.1637 14.8685 389.965 15.0665 C 387.2261 15.1956 382.1266 21.9573 378.6531 26.7472 C 376.8018 29.3001 375.1459 31.3997 375.1459 31.3997 C 375.1459 31.3997 376.2325 31.5481 376.8253 32.0926 C 377.4181 32.637 377.517 33.4784 377.517 33.4784 C 377.517 33.4784 383.494 33.2805 387.8903 26.6482 C 392.2867 20.0159 395.5963 19.818 395.5963 19.818 Z"
			  fill="#000000"/>
		<path id="logo-heart-drop-2"
			  d="M 440.9429 125.5379 C 440.9429 125.5379 441.6344 119.7966 436.7935 118.7077 C 431.9525 117.6188 419.0105 117.5198 419.0105 117.5198 C 419.0105 117.5198 418.4671 119.0541 418.4671 119.9946 C 418.4671 120.935 419.0105 124.35 419.0105 124.35 C 419.0105 124.35 423.9502 123.7561 430.2731 124.944 C 436.5959 126.1319 440.9429 125.5379 440.9429 125.5379 Z"
			  fill="#000000"/>
		<path id="logo-heart-drop-1"
			  d="M 373.9603 200.0764 C 373.9603 200.0764 373.2194 194.731 370.9965 188.1978 C 368.7736 181.6645 362.6978 178.9918 362.6978 178.9918 C 362.6978 178.9918 361.5122 183.5948 365.0688 191.7614 C 368.6255 199.9279 373.9603 200.0764 373.9603 200.0764 Z"
			  fill="#000000"/>
		<path id="logo-heart-body"
			  d="M 307.5706 181.0706 C 307.5706 181.0706 304.0278 170.9965 298.1852 157.4123 C 291.7424 142.4331 282.806 123.0753 279.6118 105.7402 C 275.3217 82.4576 282.3196 65.6295 295.2213 63.175 C 303.8324 61.5368 309.7379 63.4125 314.4615 66.6644 C 320.3046 70.6869 324.0765 76.9425 325.7981 82.7748 C 327.7305 89.3212 327.4282 95.2474 327.4282 95.2474 C 327.4282 95.2474 330.5952 90.9331 339.6074 80.5063 C 348.6196 70.0795 366.0535 62.5607 380.1843 76.8355 C 386.7136 83.4312 388.2375 99.7285 382.1603 114.2532 C 376.9586 126.6849 365.5688 137.1347 353.9052 146.7215 C 342.5864 156.0247 331.1929 163.8462 323.0813 169.6869 C 313.0677 176.8971 307.5706 181.0706 307.5706 181.0706 Z"
			  stroke="#000000" stroke-width="5" fill="#b20000"/>
		</g>
	<g id="logo-cup">
			<path id="logo-cup-body"
				  class="dashed"
				  d="M 275.4625 235.8113 C 267.0197 237.473 272.8938 251.8475 272.8938 251.8475 C 272.8938 251.8475 259.853 248.9769 258.6675 252.2435 C 257.4819 255.5101 271.4119 260.0636 271.4119 260.0636 C 271.4119 260.0636 270.7407 281.8309 256.2964 285.1077 C 245.8242 287.4835 237.9207 282.633 235.2532 274.9119 C 232.5858 267.1908 246.5157 209.2824 246.5157 209.2824 C 246.5157 209.2824 237.5327 218.3389 217.7666 225.3185 C 202.927 230.5587 182.0688 234.2275 154.0443 234.2275 C 95.657 234.2275 60.2392 211.2126 60.2392 211.2126 C 60.2392 211.2126 60.8813 229.2781 65.7223 250.7092 C 69.2251 266.2164 71.0649 279.5549 66.4633 287.3845 C 60.8638 296.9117 50.172 296.4688 45.7164 293.9177 C 39.4924 290.3541 37.8623 282.3361 37.8623 282.3361 C 37.8623 282.3361 49.5695 275.3574 48.8285 272.2392 C 48.0875 269.1211 37.7141 271.6453 37.7141 271.6453 C 37.7141 271.6453 36.084 260.0636 30.8973 260.2121 C 25.7106 260.3606 26.8961 270.6059 26.8961 270.6059 C 26.8961 270.6059 20.3892 262.1855 16.9673 266.2999 C 14.7444 268.9726 18.8938 277.2876 18.8938 277.2876 C 18.8938 277.2876 9.5577 274.6149 7.0385 276.8422 C 5.4567 278.2406 9.6953 282.4821 14.7444 285.4542 C 20.2772 288.7109 27.0443 290.3541 27.0443 290.3541 C 27.0443 290.3541 28.6744 303.7177 43.1972 310.8448 C 57.72 317.972 71.0572 308.6176 71.0572 308.6176 L 90.1738 430.6707 C 90.1738 430.6707 108.8459 455.6158 152.5624 455.6158 C 191.8331 455.6158 214.0618 434.6797 214.0618 434.6797 L 232.5858 297.1843 C 232.5858 297.1843 251.7081 307.3942 267.559 295.9965 C 284.3539 283.9199 283.366 268.0817 283.366 268.0817 C 283.366 268.0817 301.5936 255.3616 299.3707 249.2738 C 297.1478 243.186 290.6768 248.8779 290.6768 248.8779 C 290.6768 248.8779 295.4683 240.6618 290.8744 238.583 C 286.2805 236.5043 281.7853 247.69 281.7853 247.69 C 281.7853 247.69 280.9949 234.7225 275.4625 235.8113 Z"
				  stroke="#000000" stroke-width="5" fill="#ffd2a5"/>
		<g id="logo-cup-stripes">
				<g>
					<path d="M 82.3197 307.2813 L 84.098 319.1599 L 84.3944 325.6931 " stroke="#ffb56a" stroke-width="5"
						  fill="none"/>
					<path d="M 92.1003 318.8629 L 94.4714 334.0082 " stroke="#ffb56a" stroke-width="5" fill="none"/>
					<path d="M 86.4691 337.5718 L 87.3582 340.2444 L 87.951 354.7958 " stroke="#ffb56a" stroke-width="5"
						  fill="none"/>
					<path d="M 96.2497 346.4807 L 97.1389 351.2322 L 98.028 361.0321 " stroke="#ffb56a" stroke-width="5"
						  fill="none"/>
					<path d="M 92.3967 366.9714 L 93.8787 376.1774 L 94.175 383.6015 " stroke="#ffb56a" stroke-width="5"
						  fill="none"/>
					<path d="M 101.881 376.1774 L 103.3629 384.7894 L 103.9557 391.9166 " stroke="#ffb56a"
						  stroke-width="5" fill="none"/>
					<path d="M 96.8425 396.668 L 97.4352 405.874 L 97.4352 414.783 " stroke="#ffb56a" stroke-width="5"
						  fill="none"/>
					<path d="M 106.3267 407.0618 L 107.2159 418.0496 L 107.5123 425.7708 " stroke="#ffb56a"
						  stroke-width="5" fill="none"/>
				</g>
			<g>
					<path d="M 211.2462 390.7287 L 210.9498 396.3711 L 209.4679 407.6558 " stroke="#ffb56a"
						  stroke-width="5" fill="none"/>
				<path d="M 203.2439 389.8378 L 205.3185 373.2077 " stroke="#ffb56a" stroke-width="5" fill="none"/>
				<path d="M 212.7281 379.741 L 214.21 363.4078 " stroke="#ffb56a" stroke-width="5" fill="none"/>
				<path d="M 206.2077 359.8442 L 207.3932 344.105 " stroke="#ffb56a" stroke-width="5" fill="none"/>
				<path d="M 215.9883 351.5292 L 217.4702 334.899 " stroke="#ffb56a" stroke-width="5" fill="none"/>
				<path d="M 219.2485 323.0204 L 221.0269 305.2025 " stroke="#ffb56a" stroke-width="5" fill="none"/>
				</g>
			<g>
					<path d="M 231.6967 231.8518 L 229.9183 244.3244 " stroke="#ffb56a" stroke-width="5" fill="none"/>
				<path d="M 225.1762 271.9422 L 228.14 255.3121 " stroke="#ffb56a" stroke-width="5" fill="none"/>
				</g>
			<g>
					<path d="M 78.1703 268.0817 L 76.3921 254.4213 " stroke="#ffb56a" stroke-width="5" fill="none"/>
				<path d="M 82.0233 249.3728 L 81.1342 242.8395 L 80.5414 236.6033 " stroke="#ffb56a" stroke-width="5"
					  fill="none"/>
				<path d="M 72.8354 240.4638 L 71.6499 229.1791 " stroke="#ffb56a" stroke-width="5" fill="none"/>
				</g>
			</g>
		<path id="logo-cup-mouth"
			  d="M 126.4807 296.5905 C 126.4807 296.5905 124.9988 306.3402 130.6301 315.5963 C 132.797 319.158 136.235 322.689 140.7071 325.4951 C 144.7135 328.009 149.5577 330.0272 154.9335 329.5536 C 160.1924 329.0905 164.5603 327.5099 167.7767 324.6042 C 170.5894 322.0634 172.4618 318.4075 174.0674 314.9412 C 178.4006 305.586 178.9405 294.8086 178.9405 294.8086 C 178.9405 294.8086 165.5536 294.226 152.8588 294.8086 C 140.1639 295.3914 126.4807 296.5905 126.4807 296.5905 Z"
			  stroke="#000000" stroke-width="5" fill="#333333"/>
		<path id="logo-cup-blink-r" d="M 210 265 L 198 262 L 186 270 " stroke="#000000" stroke-width="5" fill="none"/>
		<path id="logo-cup-blink-l" d="M 126 266 L 111 264 L 96 272 " stroke="#000000" stroke-width="5" fill="none"/>
		<g id="logo-cup-eye-l">
				<path id="logo-cup-sclera-l"
					  d="M 109.5869 282.93 C 114.1949 282.93 118.0518 281.9074 120.7754 279.5891 C 124.1831 276.6885 125.8879 272.0429 125.8879 268.0817 C 125.8879 264.5965 125.0326 260.4815 122.5537 257.5394 C 119.9632 254.4649 115.632 252.6394 110.1797 252.6394 C 105.8001 252.6394 101.9436 253.8029 99.3617 255.9803 C 95.6534 259.1075 94.175 264.0074 94.175 267.8589 C 94.175 274.3922 99.2135 282.93 109.5869 282.93 Z"
					  stroke="#000000" stroke-width="5" fill="#ffffff"/>
			<path id="logo-cup-pupil-l" d="M 116.7001 271.6453 L 114.4772 273.2043 " stroke="#000000" stroke-width="6"
				  fill="none"/>
			</g>
		<g id="logo-cup-eye-r">
				<path id="logo-cup-sclera-r"
					  d="M 199.0945 251.4516 C 194.3896 251.4516 190.3189 253.4659 187.7579 256.203 C 185.3176 258.8111 184.2754 262.0692 184.2754 265.112 C 184.2754 268.5849 185.4303 272.7761 188.3506 275.5801 C 190.6744 277.8112 194.2654 279.3664 198.2054 279.3664 C 202.6105 279.3664 206.059 277.2128 208.2083 274.3922 C 210.3972 271.5196 211.2462 267.9563 211.2462 265.409 C 211.2462 260.3606 208.2823 251.4516 199.0945 251.4516 Z"
					  stroke="#000000" stroke-width="5" fill="#ffffff"/>
			<path id="logo-cup-pupil-r" d="M 203.8367 268.3786 L 201.021 270.2347 " stroke="#000000" stroke-width="6"
				  fill="none"/>
			<animate
					attributeType="XML"
					attributeName="visibility"
					values="hidden;visible"
					dur="0.8s"
					repeatCount="indefinite"/>
			</g>
		<g id="logo-cup-side">
				<path id="logo-cup-side-ground"
					  d="M 245 212.6667 L 223 224.3333 L 192 232 L 144 234 L 118 231 L 85 223 L 60.2392 211.2126 L 53 197 L 53 181 L 61 171 L 79 182 L 105 188 L 142 192 L 203 191 L 226 184 L 241.3333 169.6667 L 248 176 L 249 200 L 245 212.6667 Z"
					  fill="#ffffff"/>
			<path id="logo-cup-side-line"
				  d="M 53.2913 186.1715 C 58.5021 189.0916 96.9235 209.3467 161.4539 210.1733 C 224.977 210.987 246.3879 191.7353 249.6222 188.3921 "
				  stroke="#000000" stroke-width="5" fill="none"/>
			<path id="logo-cup-side-outline"
				  d="M 62.7584 171.2707 C 62.7584 171.2707 53.7682 171.4687 52.6815 186.515 C 51.5947 201.5613 60.2392 211.2126 60.2392 211.2126 C 60.2392 211.2126 95.657 234.2275 154.0443 234.2275 C 182.0688 234.2275 202.927 230.5587 217.7666 225.3185 C 237.5327 218.3389 246.5157 209.2824 246.5157 209.2824 C 246.5157 209.2824 249.6772 200.6703 249.6772 185.921 C 249.6772 171.1717 239.7977 167.5091 239.7977 167.5091 "
				  stroke="#000000" stroke-width="5" fill="none"/>
			</g>
		<g id="logo-cup-top">
				<path id="logo-cup-top-outline"
					  d="M 62.7584 171.2707 C 62.7584 171.2707 75.8981 191.2664 155.2299 192.3553 C 178.8058 192.6789 197.1111 192.6324 209.4679 189.7816 C 238.691 183.0395 239.7977 167.5091 239.7977 167.5091 C 239.7977 167.5091 253.4313 129.0026 149.9938 128.9036 C 46.5562 128.8046 62.7584 171.2707 62.7584 171.2707 Z"
					  stroke="#000000" stroke-width="5" fill="#ffffff"/>
			<path id="logo-cup-top-groove"
				  d="M 85.58 156.4224 C 86.1727 148.5033 112.8472 137.6146 159.0828 140.0893 C 205.3185 142.564 225.0774 151.275 225.1762 158.5012 C 225.275 165.7274 201.1692 181.7635 153.4516 177.21 C 105.7339 172.6566 84.9872 164.3415 85.58 156.4224 Z"
				  stroke="#000000" stroke-width="5" fill="none"/>
			<path id="logo-cup-top-indent" d="M 91.9028 163.9456 L 101.387 146.1276 L 157.6997 177.21 " stroke="#000000"
				  stroke-width="5" fill="none"/>
			<path id="logo-cup-top-hole"
				  d="M 85.2836 173.9434 C 85.2836 173.9434 83.9992 167.7071 79.9487 164.1435 C 75.8981 160.5799 70.4644 159.689 70.4644 159.689 C 70.4644 159.689 69.9705 165.3314 74.021 168.598 C 78.0715 171.8646 85.2836 173.9434 85.2836 173.9434 Z"
				  stroke="#000000" stroke-width="4" fill="#333333"/>
			</g>
		</g>
	<animate
			xlink:href="#cup"
			attributeName="cx"
			from="50"
			to="60"
			dur="5s"
			begin="0"
			repeatCount="2"
			fill="freeze"
			id="circ-anim"/>
</svg>